<svg xmlns="http://www.w3.org/2000/svg" xmlns:xlink="http://www.w3.org/1999/xlink" viewBox="0 0 706.5 830.58"><defs><style>.cls-1{fill:url(#linear-gradient);}.cls-2{fill:url(#linear-gradient-2);}.cls-3{fill:url(#linear-gradient-3);}.cls-4{fill:url(#linear-gradient-4);}.cls-5{fill:url(#linear-gradient-5);}.cls-6{fill:url(#linear-gradient-6);}.cls-7{fill:url(#linear-gradient-7);}.cls-8{fill:url(#linear-gradient-8);}.cls-9{fill:url(#linear-gradient-9);}.cls-10{fill:url(#linear-gradient-10);}.cls-11{fill:url(#linear-gradient-11);}.cls-12{fill:url(#linear-gradient-12);}.cls-13{fill:url(#linear-gradient-13);}.cls-14{fill:url(#linear-gradient-14);}.cls-15{fill:url(#linear-gradient-15);}.cls-16{fill:url(#linear-gradient-16);}.cls-17{fill:url(#linear-gradient-17);}.cls-18{fill:url(#linear-gradient-18);}.cls-19{fill:url(#linear-gradient-19);}</style><linearGradient id="linear-gradient" x1="290.67" y1="688.77" x2="478.58" y2="688.77" gradientUnits="userSpaceOnUse"><stop offset="0" stop-color="#ed1c24"/><stop offset="1"/></linearGradient><linearGradient id="linear-gradient-2" x1="10.78" y1="328.56" x2="592.12" y2="328.56" xlink:href="#linear-gradient"/><linearGradient id="linear-gradient-3" x1="267.32" y1="515.19" x2="548.41" y2="515.19" xlink:href="#linear-gradient"/><linearGradient id="linear-gradient-4" x1="444.53" y1="662.65" x2="445.4" y2="662.65" xlink:href="#linear-gradient"/><linearGradient id="linear-gradient-5" x1="541.3" y1="367.98" x2="541.4" y2="367.98" xlink:href="#linear-gradient"/><linearGradient id="linear-gradient-6" x1="465.28" y1="580.92" x2="545.33" y2="580.92" xlink:href="#linear-gradient"/><linearGradient id="linear-gradient-7" x1="465.28" y1="563.89" x2="706.5" y2="563.89" xlink:href="#linear-gradient"/><linearGradient id="linear-gradient-8" y1="717.27" x2="429.51" y2="717.27" gradientUnits="userSpaceOnUse"><stop offset="0" stop-color="#ed1c24"/><stop offset="0.07" stop-color="#e51c2a"/><stop offset="0.46" stop-color="#bf1e49"/><stop offset="0.77" stop-color="#a71f5c"/><stop offset="0.97" stop-color="#9e1f63"/><stop offset="0.97" stop-color="#731748"/><stop offset="0.98" stop-color="#420d29"/><stop offset="0.99" stop-color="#1e0613"/><stop offset="1" stop-color="#080205"/><stop offset="1"/></linearGradient><linearGradient id="linear-gradient-9" x1="131.96" y1="487.91" x2="180.95" y2="487.91" xlink:href="#linear-gradient"/><linearGradient id="linear-gradient-10" x1="81.51" y1="315.23" x2="520.77" y2="315.23" gradientUnits="userSpaceOnUse"><stop offset="0" stop-color="#ed1c24"/><stop offset="0.01" stop-color="#ea1c23"/><stop offset="0.22" stop-color="#a41319"/><stop offset="0.43" stop-color="#690c10"/><stop offset="0.61" stop-color="#3c0709"/><stop offset="0.77" stop-color="#1b0304"/><stop offset="0.91" stop-color="#070101"/><stop offset="1"/></linearGradient><linearGradient id="linear-gradient-11" x1="139.06" y1="330.61" x2="395.27" y2="330.61" xlink:href="#linear-gradient"/><linearGradient id="linear-gradient-12" x1="219.53" y1="230.33" x2="420.12" y2="230.33" xlink:href="#linear-gradient"/><linearGradient id="linear-gradient-13" x1="205.07" y1="190.63" x2="354.48" y2="190.63" xlink:href="#linear-gradient"/><linearGradient id="linear-gradient-14" x1="177.97" y1="207.24" x2="242.71" y2="207.24" xlink:href="#linear-gradient"/><linearGradient id="linear-gradient-15" x1="206.63" y1="206.18" x2="258.91" y2="206.18" xlink:href="#linear-gradient"/><linearGradient id="linear-gradient-16" x1="242.78" y1="176.25" x2="317.4" y2="176.25" xlink:href="#linear-gradient"/><linearGradient id="linear-gradient-17" x1="214.66" y1="162.98" x2="260.44" y2="162.98" xlink:href="#linear-gradient"/><linearGradient id="linear-gradient-18" x1="261.97" y1="161.54" x2="327.42" y2="161.54" xlink:href="#linear-gradient"/><linearGradient id="linear-gradient-19" x1="250.96" y1="182.58" x2="303.85" y2="182.58" xlink:href="#linear-gradient"/></defs><g id="Layer_2" data-name="Layer 2"><g id="Layer_1-2" data-name="Layer 1"><path class="cls-1" d="M291.47,656.66c-.27-.26-.54-.52-.8-.8,4.06-3.24,16.09-11.58,32-11.58,19.72,0,43.57,11.93,70.63,4.13,25.55-7.37,35.56,2.46,51.66,13.61l.46.32,2.45,1.66c17.89,11.93,30.73,69.25,30.73,69.25s-13.76-16.51-17.43-23.39c-3.07-5.76-22.82-9.9-36.45-10.3a52.94,52.94,0,0,0-7.12.21c-9,1-57.05-8.57-93-23.66C310.8,670.34,298.82,663.77,291.47,656.66Z"/><path class="cls-2" d="M573.05,307.67c-17,22.93-29.35,6.88-29.81,11.47l-.46,4.58s9.63,12.38,11.46,19.26c.81,3-5.3,13.86-12.88,25a.44.44,0,0,1-.06.1c-9.63,14.22-21.58,29-24.66,29-5.5,0-13.76-2.75-19.72,3.21s0,17.42-6,20.18-58.24,44.94-70.63,51.36c-6.63,3.44-10.76-.22-12.61-2.88l.23.59,3.67,9.63s-34.85,65.58-57.32,64.66-79.34,22-84.39,38.52c-.27.9-.53,1.84-.77,2.82v0h0c-4.13,17-2.83,46.52,21.54,70.63-1,.78-1.5,1.26-1.5,1.26l-109-60L161.68,587a4.8,4.8,0,0,0-2.16-3,10,10,0,0,0-4.26-1.56c-34.74-5.34-67.87-88-65.12-111.9S58,442,58,442l22-35.76c-.65.41-27.66,17.3-40.34,7.33C26.86,403.52-1.58,299.87,16.77,251.27S122.24,103.59,122.24,103.59l17.43,11.47c-1.83-34.84,32.56-71.53,44-78.41S227.26,6.37,258.45.87s121.53,16.51,122.9,22,2.3,16.52,10.55,16.05,9.63-6.41,18.34-4.13S439.6,38.93,456.56,55s25.68,25.68,25.23,29.81,28.89,3.68,60.07,12.84,37.61,16.51,41.74,26.6-4.13,5-4.59,11.47,8.25-2.3,11.92,2.29S590,284.74,573.05,307.67Z"/><path class="cls-3" d="M545.33,515l-1.17,1.37L465.28,646.88l.9-.24c-6.93,6.6-13,11.49-17.41,13.69a20,20,0,0,0-3.37,2l-.46-.32c-16.1-11.15-26.11-21-51.66-13.61-27.06,7.8-50.91-4.13-70.63-4.13-15.89,0-27.92,8.34-32,11.58-24.37-24.11-25.67-53.65-21.54-70.63h0v0c.24-1,.5-1.92.77-2.82,5-16.51,61.91-39.44,84.39-38.52s57.32-64.66,57.32-64.66L408,469.56l-.23-.59c1.85,2.66,6,6.32,12.61,2.88,12.39-6.42,64.67-48.61,70.63-51.36s0-14.22,6-20.18,14.22-3.21,19.72-3.21c3.08,0,15-14.75,24.66-29a.44.44,0,0,0,.06-.1l-.87,5.22C549.51,407.41,550.38,470.58,545.33,515Z"/><path class="cls-4" d="M444.94,662l.46.32a3.08,3.08,0,0,0-.87.93Z"/><path class="cls-5" d="M541.36,368a.44.44,0,0,1-.06.1l.1-.3Z"/><path class="cls-6" d="M545.33,515c-2.14,18.78-5.34,34.2-9.43,42.65-10.7,22.11-45.47,66-69.72,89l-.9.24,78.88-130.55Z"/><path class="cls-7" d="M706.5,479.65s-58.7,34.85-67.87,49.52-21.1,69.71-53.2,89-67,36.69-115.57,27.52l-3.68,1-.9.24,78.88-130.55,1.17-1.37c30.52-35.06,50.39-25.3,65.78-30.73C626.7,478.73,706.5,479.65,706.5,479.65Z"/><path class="cls-8" d="M429.51,700.7c-14.68,25.68,0,113.73-4.59,124.73s-58.7.92-58.7.92,5.51-59.62-24.76-100-51.36-57.79-79.8-68.79-53.2-48.61-116.48-53.2S77.31,632.82,42.45,650.25,2.1,624.57,2.1,624.57s-11.24,28.79,18.34,47.69c33,21.1,96.31-3.67,127.49,10.09s101.81,11,122.9-12.84c0,0,5.2-4,8.56-4"/><path class="cls-9" d="M181,610.81c-52.28-46.78-57.78-162.34-39.44-202.7S167.19,365,167.19,365"/><path class="cls-10" d="M520.77,227.42s0,11.46-1.38,18.8-15.13,23.39-21.55,28.89-86.22,82.55-126.12,141.72-67,119.22-74.75,125.64-14.67,5-27.06,37.61l-.77,5.11v0L179.36,365.6l-.25-.6a28.88,28.88,0,0,1-9.52-1.83,32.81,32.81,0,0,1-4.24-1.84c-52.28-4.59-78.88-46.78-83.46-79.8s33.93-86.22,38.52-77,19.26,8.25,19.26,8.25-2.75-7.34-3.67-25.68,38.52-42.65,38.52-42.65c5-17,62.83-61,74.3-75.2s44-25.23,51.36-23.86S298.35,71,308,72s0-12.85,18.34-21.1,77.05,13.75,77.05,13.75.69,39.7,9.55,56.2c.17.32.34.62.52.91a14.74,14.74,0,0,0,4.14,4.8c13.3,9.18,47.24,41.28,47.24,58.25s-4.59,35.77-4.13,44,15.59,65.58,22,49.07S520.77,227.42,520.77,227.42Z"/><path class="cls-11" d="M166,364.7c8.25-1.84,52.58,9.17,52.58,9.17s9.79-20.79,13.76-16.21-1.22,22.93,7.34,21.4,103.64-30,128.1-15.59,27.52,20.18,27.52,20.18-8.56-26-30.27-32.1-79.67-5.26-147.06-10.7c-30.26-2.45-66-39.14-78.88-63.29,0,0,72.16,47.7,84.69,63"/><path class="cls-12" d="M225,339.93a30.43,30.43,0,0,1-2.44-30.57c7.95-17.43,29-44.95,57.17-54.12s66-10.7,83.77-31.49c0,0-2.14-7.95-.61-7.64s10.39,10.09,15,7,26.91-5.5,37.61-37.91-.31-59.62-.31-59.62L413,120.72"/><path class="cls-13" d="M241.48,280c19-29.35,56.87-63,71.55-70.63s44-46.16,41.27-73.37-34.85-40-42.5-32.72-16.2,9.18-28.12,7.34-44.34-1.83-62.37,14.07S203,184.62,207.55,198.38s18,15.89,18,15.89,5.5-7,12.53-2.14,21.1,8.87,27.21,36.69"/><path class="cls-14" d="M180,135.7c-9.78,25.07,15.9,96.61,62.68,143.08"/><path class="cls-15" d="M206.63,185.54c22-3.37,50.14,22.31,52.28,41.58"/><path class="cls-16" d="M306.6,213.05c-2.14-13.45-12.84-19.87-20.78-18.34s-18.35,12.84-29.36,11-15.28-16.81-13.14-25.37,9.17-32.72,21.71-38.52,40.66.3,43.41,5.19l2.75,4.9s10.4,16.81,4.28,26.59-8.56,13.76-16.81,18.65"/><path class="cls-17" d="M215.8,184.31c-6.11-13.76,12.84-48.3,44.64-41.88"/><path class="cls-18" d="M262,143c7.64-14.06,58.9-19.77,64.81,6.11,4.9,21.4-19.87,42.81-19.87,42.81"/><path class="cls-19" d="M251,202.05c6.42,5.19,7,5.5,12.84-.92s-.61-2.14.92-11.31,3.6-20.88,24.76-29.66C302,155,303.85,172.7,303.85,172.7s-9.47,2.14-13.14,6.42-.92,15-.92,15"/></g></g></svg>